<?xml version="1.0" encoding="UTF-8"?>
<svg id="Capa_2" data-name="Capa 2" xmlns="http://www.w3.org/2000/svg" viewBox="0 0 64 58.02">
  <defs>
    <style>
      .cls-1 {
        fill: #0048f1;
      }
    </style>
  </defs>
  <g id="Capa_1-2" data-name="Capa 1">
    <g>
      <path class="cls-1" d="M24.66,21.66c.14,1.06,.29,2.14,.45,3.19,.12,.91,.25,1.84,.4,2.76,.15,.89,.72,4.25,.89,5.21,.03,.2,.08,.38,.14,.54,.08,.23,.27,.4,.55,.5,.34,.12,.68,.17,1.01,.14,.06,0,.11-.01,.17-.02,.26-.04,.5-.13,.71-.26,.26-.15,.47-.36,.64-.62,.17-.26,.26-.56,.27-.89,.02-.14-.4-2.75-.42-3.01-.02-.24-.04-.49-.07-.75-.02-.26-.05-.51-.07-.76,0-.02,0-.03,0-.05,.19,.11,.39,.23,.59,.37,.36,.26,.74,.51,1.11,.76,.38,.25,1.86,.88,2.27,1.06,.43,.19,.87,.29,1.31,.3h.01c.13,0,.26-.02,.37-.04,.65-.11,1.08-.49,1.23-1.09,.06-.24,.09-.48,.08-.71,.01-.29-.02-.5-.09-.66-.06-.13-.19-.31-.48-.41h-.01c-.38-.11-.73-.21-1.03-.29-.29-.08-.58-.17-.87-.26-.27-.09-1.64-.6-1.93-.74-.19-.09-.4-.2-.63-.33,.1-.06,.2-.12,.3-.18,.23-.14,.47-.28,.7-.43,1.64-1.06,2.64-2.49,2.96-4.25,.18-1.1,0-2.08-.52-2.93-.53-.85-1.36-1.48-2.49-1.88-.57-.21-1.13-.35-1.66-.42-.54-.07-1.08-.07-1.61-.02-.19,.02-.38,.05-.57,.08-.34,.06-.69,.14-1.03,.24-.53,.15-1.08,.34-1.64,.56-.32,.13-.57,.24-.76,.34-.22,.12-.38,.26-.5,.43-.12,.17-.19,.37-.21,.6-.02,.2,0,.44,.04,.73,.12,1.06,.25,2.14,.39,3.2Zm3.92-3.62s.03,0,.04,0c.56-.1,1.11-.1,1.63,0,.5,.09,.9,.28,1.24,.58,.29,.26,.41,.68,.36,1.27-.03,.58-.15,1.1-.38,1.54-.23,.45-.54,.86-.9,1.2-.37,.35-.8,.67-1.28,.94l-1.06,.6c-.18-.94-.29-1.89-.34-2.81-.04-.68-.11-1.36-.22-2.04-.09-.6,.3-1.17,.9-1.27Z"/>
      <path class="cls-1" d="M47.81,33.62c.14,0,.28-.02,.43-.04,.39-.06,.81-.19,1.02-.5,.22-.31,.16-.72,.1-1.1-.22-1.29-.04-1.01-.26-2.31-.37-2.22-.92-4.38-3.14-5.67,1.24-.55,2.41-1.29,3.17-2.34s1.05-2.45,.51-3.63c-.4-.86-1.19-1.54-2.11-1.95-1.11-.5-2.38-.66-3.59-.62-.93,.03-1.85,.2-2.74,.49-.32-.21-1.01-1.46-1.38-1.48-.13,0-.26,0-.38,0-.25,0-.51,.03-.77,.08-.45,.07-.73,.17-.9,.31-.18,.16-.14,.55-.14,.91,0,.41,.12,.78,.14,1.18,.02,.56,.02,1.11,.03,1.67,.03,1.11,.07,2.22,.13,3.34,.21,3.87,.81,10.88,1.35,14.72,.03,.2,.06,.4,.18,.57,.2,.28,.59,.39,.95,.44,.46,.06,.93,.04,1.39-.04,.24-.04,.48-.11,.67-.25,.33-.24,.44-.66,.45-1.05,.09-2.49-.76-8.02-1.02-10.48,0-.07-.01-.14,.02-.21,.14-.27,.73-.11,.97-.07,.41,.07,.81,.23,1.13,.49,.55,.45,.79,1.13,.91,1.79,.38,2.05,.42,2.51,.83,4.55,.07,.34,.15,.71,.44,.93,.2,.16,.47,.22,.73,.25,.29,.04,.59,.04,.88,.03Zm-1.54-13.9c-.14,.34-.35,.65-.62,.92-.28,.28-.61,.55-.99,.8-.41,.27-.87,.5-1.36,.66-.5,.17-1.04,.32-1.58,.44-.03,0-.05,0-.08,0-.02,0-.03,0-.05,0,0,0-.01,0-.02,0l-.02-.37c-.02-.58-.04-1.18-.05-1.77-.01-.59-.04-1.19-.09-1.78-.02-.25,.04-.57,.65-.76,.48-.17,.98-.26,1.48-.28,.44-.01,.9,.03,1.36,.14,.63,.14,1.06,.39,1.31,.76,.24,.37,.26,.77,.07,1.22Z"/>
      <path class="cls-1" d="M51.55,29.51c.12,1.04,.62,3.16,.86,4.18,.28,1.21,.65,1.87,2.04,2.12,.18,.03,.38,.03,.56,0,.49-.09,.93-.41,1.08-.87,.09-.29,.07-.61,.03-.92-.24-1.92-.88-2.59-1.18-4.5-.39-2.48-.52-3.9,.02-4,0,0,3.88-.48,3.88-.48,.08,0,.25,3.93,.28,4.27,.03,.32,.06,.65,.21,.94,.33,.62,1.13,.83,1.83,.78,.32-.02,.64-.09,.9-.28,.26-.19,.43-.49,.54-.8,.31-.86,.26-1.8,.12-2.7-.33-2.18-.63-4.36-.85-6.56-.08-.82-.28-1.58-.6-2.27-.32-.69-.75-1.28-1.28-1.74-.53-.47-1.13-.79-1.81-.97-.52-.14-1.08-.15-1.66-.05-.17,.03-.35,.07-.54,.12-.55,.17-1.04,.42-1.44,.74-.38,.31-.75,.67-1.1,1.08-.57,.7-1.01,1.47-1.3,2.28-.76,2.13-1.01,4.37-.82,6.62,.2,2.3-.06,.72,.2,3.01Zm3.1-7.58c.13-.51,.32-1.01,.57-1.51,.24-.51,.53-1,.85-1.45,.29-.4,.58-.68,.86-.82,.06-.03,.12-.05,.17-.06,.14-.02,.28,.01,.44,.11,.11,.07,.41,.35,.77,1.39,.18,.49,.31,1.01,.4,1.53l.2,1.15c-.77,.09-1.54,.19-2.3,.3-.7,.1-1.44,.2-2.21,.29l.24-.94Z"/>
      <path class="cls-1" d="M5.72,40.04c-.45,.31-1.14,1.02-1.52,1.39-.96,.96-.8,2.13-.38,3.27,.38,1.05,1.31,1.42,2.27,1.37,1.58-.08,3.15-.37,4.72-.52,3.27-.32,4.73,.29,5.68,.61,2.99,1.02,2.26,4.15,1.3,5.09-1.1,1.08-5.97,4.44-9.71-2.25,0,0,0,0,0-.01-.34-.6-1.19-.57-1.48,.06-.46,1-.83,2.65-.19,5.05,.26,.99,.77,1.82,1.59,2.45,1.19,.92,2.58,1.02,3.96,.99,2.47-.04,4.81-.71,7.04-1.77,1.22-.58,2.32-1.36,3.18-2.44,1.78-2.25,1.84-4.33,.88-6.96-.61-1.67-2.19-3.15-3.87-3.56-5.64-1.4-10.21,1.63-10.65,.12s5.95-2.27,8.76-2.68c1.31-.19,1.31-1.43-.67-2.44-1.05-.54-3.04-.56-4.7-.35-1.77,.23-3.54,.76-6.19,2.58Z"/>
      <path class="cls-1" d="M3.19,29.01c.47,1.16,1.06,2.36,1.77,3.57,.11,.19,.22,.42,.34,.66,.35,.71,.74,1.52,1.37,1.9,.38,.23,.82,.27,1.12,.28,.08,0,.15,0,.23,0,.47,0,.87-.07,1.24-.21,.34-.13,.58-.32,.71-.56,.27-.48,.09-1.02-.14-1.53-.56-1.24-1.15-2.5-1.72-3.72-.23-.49-.46-.98-.68-1.47,2.13-1.39,4.04-4.54,4.64-6.04,.51-1.28,.58-2.85,.21-4.54-.27-1.22-.89-2.89-2.35-3.86-1.28-.86-3.05-.98-4.49-.3-1.38,.65-2.45,2-2.8,3.55-.01,.05-.03,.06-.03,.07-.09,.05-.37-.03-.58-.08-.28-.07-.57-.15-.82-.1-.42,.09-.73,.33-.93,.72-1.15,2.22,1.77,8.96,2.73,11.18,.09,.22,.16,.38,.2,.47Zm2.02-12.15c.19-.22,.76-.48,1.4-.48,.12,0,.24,0,.36,.03,.42,.07,.99,.3,1.28,1,1.51,3.63-.48,5.82-1.8,7.26-.12,.13-.23,.25-.33,.37-.13-.31-.26-.62-.38-.92-.38-.95-.7-1.86-.95-2.7-.24-.82-.36-1.49-.34-2,.02-1.12,.27-1.98,.76-2.55Z"/>
      <path class="cls-1" d="M29.3,42.36c-.07-.51-.06-1.03-.09-1.54-.02-.32-.27-1.05,.19-1.1,1.75-.18,3.35-.7,5.04-1.51,1.1-.52,2.28-.85,2.1-2.25,0,0,0-.02,0-.02-.26-1.32-1.17-1.16-2.28-.85-1.21,.34-2.36,.86-3.55,1.26-2.99,1-5.65,.96-8.8,.52-.21-.03-.4-.04-.56-.02-.21,.02-.39,.07-.54,.16-.26,.16-.44,.46-.53,.89-.14,.73-.08,1.24,.2,1.55,.26,.29,.75,.49,1.47,.61,.12,.02,.23,.04,.33,.05,.11,.02,.22,.03,.33,.03,.36,.05,.73,.08,1.11,.1,.19,.01,.62,.04,.99,.08,.3,.03,.55,.26,.59,.56l.04,.3c.04,.28,.04,.57,.03,.86-.15,4.04,.85,6.66,1,14.11,.05,.46,.38,1.25,2.22,1.32,.37,.01,.67,.02,.93,.01,1.93-.04,3.23-2.02,2.51-3.81-.93-2.35-1.87-5.39-2.74-11.31Z"/>
      <path class="cls-1" d="M37.3,43.52c.14-.05,1.95-.07,2.15-.08,.54-.04,1.32-.08,2.32-.1,.59,.02,1.06-.04,1.43-.17,.16-.06,.31-.13,.43-.21,.41-.28,.67-.79,.76-1.5,.06-.58-.2-.98-.72-1.13-.93-.34-1.9-.58-2.88-.72-1-.15-3.69-.16-4.77-.02-.46,.07-.88,.17-1.25,.3-.6,.21-1.11,.5-1.51,.87-.66,.61-1,1.42-1.01,2.4,0,.2,.01,.4,.04,.59,.02,.19,.07,.39,.12,.59,.17,.65,.35,1.3,.53,1.94,.18,.64,1.34,5.07,1.75,6.03,.41,.97,.84,1.94,1.27,2.9,.4,.91,1.06,1.67,1.99,2.25,.34,.2,1.06,.46,2.02,.55,2.09,.2,6.24-3.84,6.71-5.36,.13-.41-.16-.85-.54-1.23-.62-.61-1.6-.67-2.29-.13s-1.62,1.26-2.33,1.74c-.81,.54-1.55,.96-1.89,.05-.23-.61-.59-1.63-.67-2.03-.07-.35,.13-.69,.46-.82,.48-.18,1.08-.41,1.15-.44,.22-.07,.41-.16,.58-.25,.29-.13,.6-.27,.91-.4,.32-.14,.64-.29,.94-.44h.01c.47-.29,.77-.56,.91-.84,.15-.3,.16-.66,0-1.07-.13-.34-.27-.62-.43-.82-.18-.24-.41-.39-.68-.47-.26-.07-.57-.06-.91,.03-.18,.05-.4,.11-.64,.2-.16,.05-.33,.12-.51,.19-.23,.09-.47,.18-.7,.26-.12,.04-.24,.08-.36,.12-.18,.06-.87,.31-1.43,.52-.41,.15-.87-.09-.97-.52-.14-.63-.19-1.23-.3-1.57-.15-.45-.16-.78-.04-.97,.06-.1,.18-.18,.35-.23Z"/>
      <path class="cls-1" d="M63.94,34.4c-.2-.61-.89-.96-1.56-.86-.89,.13-1.81,.9-2.43,1.56-3.59,3.88-4.6,9.6-6.88,14.47-.63-3.72-1.25-7.45-1.88-11.17-.13-.74-.26-1.51-.65-2.13s-1.12-1.07-1.8-.87c-.55,.16-.96,.7-1.14,1.29s-.16,1.21-.13,1.82c.3,5.21,1.5,10.72,2.89,15.69,.35,1.27,.82,2.63,1.95,3.32,.65,.39,1.51,.45,2.14-.01,.57-.42,.83-1.17,1.05-1.87,1.03-3.34,1.77-6.77,2.85-10.09,1.08-3.32,2.53-6.58,4.78-9.16,.28-.32,.58-.65,.75-1.05,.15-.35,.15-.67,.06-.94Z"/>
      <path class="cls-1" d="M23.59,31.63c-.1-1.56-.21-3.11-.34-4.63-.12-1.52-.27-3.06-.43-4.55-.06-.86-.23-1.66-.51-2.38-.28-.72-.67-1.33-1.14-1.81-.47-.48-1.02-.81-1.63-.98-.47-.13-.98-.14-1.51-.02-.16,.04-.32,.08-.49,.14-.51,.19-.95,.46-1.32,.81-.35,.34-.69,.73-1.02,1.16-.53,.75-.94,1.57-1.22,2.43-.27,.85-.49,1.73-.64,2.63-.24,1.4-.31,2.81-.22,4.18,.02,.27,.04,.54,.07,.8,0,.44,.07,.93,.16,1.4,.09,.62,.19,1.24,.31,1.86v.02c.1,.38,.24,1.14,.43,1.92s3.43,.42,3.24-.6c-.01-.15-.04-.3-.09-.47-.04-.18-.07-.36-.11-.53-.15-.72-.29-1.32-.44-1.83-.05-.26-.1-.53-.14-.8-.15-.92-.19-1.82-.1-2.69l3.01-.67c.03,.9,.08,1.82,.15,2.74,.08,1.08,.17,2.15,.26,3.18,.02,.27,.05,.49,.1,.67,.06,.23,.16,.41,.29,.53,.12,.11,.28,.18,.46,.21,.16,.02,.35,.03,.6,.01,.37-.04,.69-.08,.95-.14,.04,0,.09-.02,.13-.03,.32-.08,.57-.23,.76-.44,.2-.23,.33-.53,.38-.89,.05-.32,.06-.72,.04-1.22Zm-5.62-7.13c-.58,.11-1.19,.21-1.83,.32l.21-.91c.12-.49,.28-.98,.49-1.46,.21-.5,.45-.97,.72-1.4,.25-.39,.49-.66,.73-.8,.05-.03,.1-.05,.14-.06,.12-.03,.24,0,.37,.1,.09,.07,.34,.33,.62,1.32,.14,.47,.25,.96,.31,1.46l.15,1.1c-.64,.1-1.28,.21-1.91,.33Z"/>
      <g>
        <path class="cls-1" d="M15.58,9.07c.1-.3,.2-.6,.3-.91,.1-.31,.2-.61,.31-.9,.28-.82,.6-1.61,.97-2.36,.37-.75,.82-1.5,1.34-2.23,.12-.19,.27-.37,.43-.52,.3-.27,.65-.43,1.06-.47,.4-.04,.78,.03,1.08,.22,.33,.2,.37,.49,.14,.83-.58,.71-1.08,1.45-1.49,2.21-.41,.76-.76,1.54-1.05,2.33-.29,.79-.53,1.6-.73,2.42-.19,.82-.37,1.64-.52,2.47-.05,.21-.08,.42-.11,.63-.03,.21-.07,.41-.13,.61-.06,.19-.15,.37-.26,.52s-.28,.28-.48,.38c-.19,.1-.39,.15-.61,.15-.22,0-.42-.03-.61-.11-.2-.07-.37-.18-.53-.33-.16-.15-.28-.33-.37-.54-.21-.47-.45-.95-.67-1.42-.22-.48-.43-.97-.6-1.47-.26-.76-.49-1.51-.7-2.27-.21-.75-.42-1.51-.65-2.29-.05-.2-.05-.38,0-.56,.05-.17,.15-.33,.29-.47,.14-.14,.32-.24,.53-.31,.21-.07,.45-.09,.69-.08,.23,.01,.41,.08,.52,.21,.11,.13,.18,.28,.23,.44,.12,.38,.29,.77,.44,1.16s.3,.78,.46,1.17c.1,.25,.19,.5,.28,.76,.09,.26,.18,.52,.29,.78,.02,0,.05,0,.07-.02s.05-.01,.07-.02Z"/>
        <path class="cls-1" d="M22.59,2.48c.1-.36,.26-.67,.49-.88,.56-.5,1.5-.42,2.15-.19,.13,.05,.27,.11,.35,.23,.09,.14,.09,.32,.07,.49-.12,1.67-.28,4.09-.34,5.76-.09,1.52-.12,3.04-.19,4.55,0,.16-.02,.32-.08,.46-.15,.35-.57,.49-.94,.55-.31,.05-.65,.05-.93-.11-.29-.18-.44-.52-.51-.85-.15-.73-.23-1.5-.27-2.25-.08-1.44-.1-3.64-.04-5.08,.03-.69-.02-1.83,.23-2.7Z"/>
        <path class="cls-1" d="M26.6,12.02c0-.07,0-.14,0-.21,0-.07,0-.15,.02-.23,.04-.15,.08-.28,.12-.39,.05-.11,.11-.19,.19-.26,.08-.07,.18-.12,.3-.16,.12-.04,.28-.08,.46-.09,.09,0,.18-.01,.27-.03,.09-.01,.17-.03,.27-.04,.49-.09,.86-.27,1.11-.55,.24-.28,.33-.63,.25-1.05-.05-.28-.17-.56-.33-.81s-.35-.49-.58-.71c-.37-.33-.72-.65-1.04-.97-.32-.32-.59-.67-.78-1.05-.23-.45-.3-.91-.24-1.35,.06-.44,.23-.85,.49-1.23,.26-.38,.62-.74,1.07-1.07,.45-.33,.94-.63,1.47-.89,.53-.26,1.09-.48,1.67-.64,.57-.16,1.13-.27,1.62-.28,.37-.01,.64,.05,.77,.15,.13,.1,.17,.3,.1,.56-.05,.2-.12,.4-.19,.6-.07,.2-.15,.39-.24,.57-.2,.46-.6,.72-1.2,.79-.34,.04-.67,.13-.98,.26-.31,.13-.57,.3-.77,.49-.2,.19-.33,.4-.39,.64-.06,.24,0,.48,.14,.72,.09,.15,.19,.29,.3,.41,.11,.13,.23,.25,.34,.36,.3,.3,.6,.59,.9,.88,.3,.28,.58,.59,.84,.92,.29,.37,.49,.77,.59,1.19,.1,.42,.08,.89-.06,1.39-.17,.82-.56,1.5-1.15,2.03-.59,.53-1.34,.91-2.24,1.13-.35,.09-.7,.13-1.03,.13-.33,0-.67-.01-1-.04-.42-.04-.72-.13-.87-.3-.15-.17-.22-.46-.2-.86Z"/>
        <path class="cls-1" d="M43.86,2.12c.07-.11,.14-.22,.21-.32,.07-.1,.17-.19,.28-.27,.18-.16,.39-.25,.64-.28s.48,.02,.7,.1c.22,.09,.41,.22,.54,.41,.13,.18,.14,.38,.1,.57-.05,.22-.1,.46-.18,.68-.08,.22-.15,.45-.21,.69-.33,1.17-.63,2.39-.93,3.62-.3,1.23-.57,2.47-.79,3.7-.03,.3-.11,.52-.25,.64-.13,.12-.39,.21-.77,.27-.12,.02-.24,.03-.35,.05-.11,.02-.21,.03-.31,.02-.56-.05-.85-.3-.86-.75,0-.16,.02-.31,.04-.45,.02-.14,.04-.3,.06-.46,.02-.16,.05-.32,.07-.48,.03-.16,.05-.32,.08-.48,0-.06-.01-.14-.06-.26-.33,.34-.66,.69-.99,1.03-.33,.34-.69,.65-1.07,.92-.37,.27-.75,.48-1.15,.62-.4,.14-.79,.21-1.18,.21-.38,0-.75-.06-1.09-.19-.34-.13-.65-.32-.9-.58-.39-.4-.66-.83-.8-1.3-.14-.47-.23-.96-.24-1.47-.03-1.01,.14-2.06,.49-3.09,.35-1.03,.98-2.82,1.46-3.84,.1-.17,.24-.32,.41-.44,.17-.12,.37-.2,.6-.23,.08-.02,.15-.04,.22-.06,.07-.02,.13-.03,.18-.03,.69-.11,1.16-.04,1.4,.18,.24,.22,.24,.6,0,1.12-.1,.23-.21,.54-.35,.95s-.48,1.6-.6,2.09c-.12,.48-.23,.96-.31,1.45-.08,.49-.12,.92-.11,1.3,0,.38,.07,.68,.19,.9,.12,.22,.32,.29,.58,.23,.29-.06,.63-.24,.98-.55,.34-.31,.69-.68,1.03-1.12,.35-.44,.69-.92,1.02-1.43,.33-.51,.64-1.01,.93-1.49,.28-.48,.54-.91,.77-1.31,.23-.39,.4-.68,.53-.88Z"/>
        <path class="cls-1" d="M48.92,7.12c-.32,.57-.52,1.2-.6,1.88-.08,.68-.15,1.38-.11,1.98,.02,.4-.07,.73-.33,.93-.27,.2-.63,.27-1.11,.19-.21-.04-.38-.13-.49-.25-.11-.12-.19-.29-.21-.47-.03-.23-.04-.49-.04-.73,0-.24,0-.49,0-.75,.05-.89,.17-1.79,.37-2.66,.2-.87,.54-1.71,1.04-2.47,.32-.49,.7-.94,1.13-1.34,.43-.4,.96-.71,1.58-.92,.37-.12,.75-.21,1.14-.26,.38-.05,.81-.04,1.26,.03,.64,.11,1.18,.3,1.62,.56,.44,.26,.77,.56,1,.91,.23,.35,.36,.72,.39,1.12,.03,.4-.05,.81-.24,1.23-.29,.79-.58,1.61-.87,2.45-.29,.84-.59,1.71-.88,2.6-.09,.26-.19,.48-.29,.63-.1,.16-.23,.27-.38,.34-.16,.07-.34,.1-.56,.09-.22,0-.5-.04-.83-.09-.18-.03-.32-.07-.42-.1-.1-.04-.18-.09-.23-.15-.05-.06-.07-.14-.07-.24,0-.1,.02-.22,.06-.37,.16-.65,.33-1.29,.51-1.91s.38-1.22,.61-1.8c-1.21-.18-1.83-.27-3.05-.42Zm.82-1.67c.48,.1,.94,.19,1.36,.28,.43,.08,.86,.18,1.29,.27,.08-.21,.14-.41,.2-.61,.05-.2,.08-.4,.09-.59,.01-.33-.04-.56-.16-.7s-.29-.2-.48-.2c-.19,0-.41,.05-.65,.15-.24,.1-.46,.23-.67,.37-.2,.14-.38,.29-.54,.46-.15,.17-.3,.36-.44,.57Z"/>
        <path class="cls-1" d="M58.03,10.97c.2,.02,1.15,.06,1.33,.07,.18,0,.35,.03,.53,.06,.34,.05,.47,.22,.42,.49-.04,.21-.08,.42-.15,.6-.08,.22-.21,.38-.36,.48-.15,.1-.39,.14-.69,.14-.3,0-1.35-.04-1.65-.03-.3,0-.6,0-.89,0-.57,0-1-.11-1.28-.34-.28-.24-.38-.6-.29-1.06,.14-.74,.32-1.46,.53-2.16,.22-.7,.45-1.38,.7-2.04,.25-.66,.51-1.31,.79-1.94,.27-.63,.54-1.26,.79-1.89,.03-.08,.06-.15,.09-.22,.03-.07,.08-.13,.13-.19,.06-.06,.13-.11,.22-.15,.09-.04,.21-.07,.36-.09,.32-.04,.64-.04,.94,0,.29,.03,.57,.11,.83,.24,.14,.06,.22,.14,.23,.23,.01,.09,0,.19-.04,.29-.18,.49-.36,.98-.53,1.47-.17,.49-.35,.98-.54,1.48-.25,.68-.49,1.38-.73,2.08-.24,.7-.47,1.43-.68,2.19-.01,.05-.02,.09-.02,.13,0,.04,0,.1-.02,.16Z"/>
      </g>
    </g>
  </g>
</svg>