<?xml version="1.0" encoding="UTF-8"?>
<svg id="Capa_2" data-name="Capa 2" xmlns="http://www.w3.org/2000/svg" viewBox="0 0 583 324.61">
  <defs>
    <style>
      .cls-1 {
        fill: #0048f1;
      }
    </style>
  </defs>
  <g id="Capa_1-2" data-name="Capa 1">
    <g>
      <path class="cls-1" d="M272.34,215.33c-5.85-18.45-12.22-37.8-17.6-54.6-4.72-14.72-11.81-28.47-23.44-39.28-10.53-9.79-22.86-12.74-36.86-10.04-7.97,1.53-15.51,4.12-21.74,9.26-8.86,7.31-11.37,17.45-11.6,28.5-.28,13.68,10.89,44.23,14.68,57.1,1.27,4.31,5.42,9.9,9.39,12.01,8.2,4.36,8.43,8.87,6.25,12.97-3.45,6.48-16.64,10-24.54-12.86-3.27-9.47-17.32-51.05-20.93-60.83-3.95-10.74-9.18-21.13-17.49-29.63-8.92-9.11-18.35-13.94-31.06-12.55-19.96,2.17-32.47,9.08-40.96,28.07-4.08,9.12-5.43,18.9-5.07,28.8,.66,18.11,4.18,35.69,12.1,52.06,4.44,9.19,9.68,18.02,19.51,22.89,6.75,3.35,13.72,3.9,20.94,2.58,18.31-3.35,32.85-17.89,37.67-27.84-3.38-.24-6.53-.29-9.64-.71-10.95-1.47-18.15-7.67-21.63-18.01-2.08-6.17-3.66-12.48-2.11-19.15,1.32-5.69,4.85-9.33,10.11-11.34,5.65-2.16,11.15-2.1,16.2,1.81,5.8,4.49,15.69,30.92,19.91,41.78,6.53,16.82,16.62,35.31,33.19,28.69,12.03-4.81,14.72-12.05,13.7-18.32-1.57-9.65-16.77-13-11.46-16.32,3.67-2.3,5.94,9.96,29.6,7.75,14.33-1.33,28.73-8.34,27.09-8.71-4.1-.93-15.99-2.65-23.2-8.5-7.91-6.42-13.32-21.88-8.54-31.72,5.03-10.37,28.35-12.09,34.06,13.75,2.55,11.54,15.48,39.79,10.07,48.3-21.26,33.48-58.94,15.25-86.37,28.23-16.14,7.64-29.75,19.43-45.57,27.57-7.13,3.67-16.06,7.89-24.2,8.15-9.54,.31-18.13-6.7-24.14-13.38-16.8-18.67-28.31-44.53-36.51-68.05-8.87-25.45-13.27-41.82-13.27-59.47,0-.05,0-.1,0-.15,.01-19.6,11.75-37.28,29.77-44.97,3.55-1.51,7.11-2.99,10.71-4.38,18.74-7.25,38.1-13.11,58.03-15.97,25.43-3.64,51.2-2.32,76.63,.53,9.6,1.08,19.18,2.45,28.81,3.35,6.04,.57,23.43,3.91,23.25-6.49-.03-1.79-.62-3.54-1.52-5.08-3.11-5.33-7.7-9.45-12.91-12.71-5.09-3.18-14.96-4.8-15.63-11.97-.39-4.17,1.69-7.89,3.81-11.31,1.3-2.1,7.67-7.95,1.85-12.19-9.7-7.07-23.84-1.73-34.62,3.2-8.92,4.08-20.53,3.98-9.39-12.01,6.77-9.72,.64-16.65-16.11-12.46-13.71,3.43-20.02,15.12-33.17,21.31-.81,.38-1.66,.45-2.45,.28-2.3-.5-4.53-2.25-3.1-7.39l2.36-11.32c1.44-6.91-5.74-12.53-12.04-9.33-11.4,5.79-20.59,19.52-27.73,29.83-1.09,1.57-3.2,2.15-4.88,1.23-4.8-2.63-6.58-10.29-5.84-16.33,.69-5.65,2.19-11.87,.75-17.09-.67-2.45-3.49-3.59-5.68-2.31C60.61,11.72,44.13,27.33,31.45,45.51c-6.37,9.13-11.79,18.92-16.11,29.18C6.68,95.24-2.11,120.15,.45,142.7c1.37,12.06,3.12,26.53,8.09,37.61,16.2,36.1,34.08,71.45,53.56,105.89,4.34,7.67,8.83,15.39,15.11,21.57,9.06,8.93,24.43,10.94,36.9,13.44,26.07,5.24,56.62,4.99,81.6-4.74,40.91-15.93,85.02-74.69,76.64-101.15Z"/>
      <g>
        <path class="cls-1" d="M309.68,223.58c-2.09,1.44-5.37,4.76-7.15,6.53-4.52,4.49-3.73,10-1.8,15.32,1.79,4.91,6.14,6.67,10.64,6.44,7.4-.37,14.75-1.74,22.15-2.46,15.32-1.5,22.2,1.34,26.63,2.85,14.03,4.78,10.6,19.47,6.09,23.89-5.18,5.06-27.98,20.84-45.54-10.55,0-.02-.02-.04-.03-.05-1.57-2.81-5.6-2.66-6.95,.27-2.15,4.68-3.87,12.41-.91,23.69,1.22,4.64,3.63,8.53,7.46,11.49,5.58,4.31,12.1,4.77,18.59,4.66,11.56-.2,22.55-3.32,33.02-8.28,5.72-2.71,10.89-6.39,14.9-11.46,8.35-10.57,8.63-20.32,4.15-32.63-2.86-7.85-10.27-14.76-18.15-16.71-26.46-6.57-47.89,7.66-49.96,.54-2.01-6.91,27.91-10.63,41.09-12.55,6.14-.89,6.14-6.71-3.14-11.42-4.94-2.51-14.28-2.65-22.06-1.65-8.32,1.06-16.59,3.56-29.03,12.1Z"/>
        <path class="cls-1" d="M420.25,234.46c-.35-2.38-.27-4.81-.44-7.21-.1-1.51-1.25-4.93,.88-5.15,8.23-.85,15.72-3.29,23.63-7.07,5.14-2.45,10.7-4,9.84-10.55,0,0-.01-.09-.01-.09-1.24-6.2-5.51-5.43-10.69-3.99-5.69,1.58-11.06,4.02-16.64,5.89-13.35,4.47-26.71,4.14-40.51,2.57-1.69-.19-3.44-.37-5.05,.17-3.9,1.32-5.08,8.85-2.41,11.77,1.86,2.03,5.11,2.68,7.71,2.95,3.84,.39,7.68,.79,11.53,1.18,.86,.09,1.78,.2,2.46,.74,1.06,.84,1.16,2.38,1.18,3.74,.08,7.35,.13,14.64,.9,21.95,.62,5.82,1.39,11.63,2.01,17.46,1.06,10.07,1.68,20.18,1.89,30.3,.22,2.17,1.79,5.86,10.39,6.19,1.74,.07,3.15,.08,4.38,.05,9.04-.2,15.13-9.45,11.79-17.86-4.38-11.03-8.78-25.28-12.83-53.03Z"/>
        <path class="cls-1" d="M457.79,239.91c.65-.22,9.15-.31,10.1-.38,2.54-.21,6.2-.37,10.88-.48,2.78,.07,4.97-.18,6.7-.78,.76-.26,1.44-.6,2.01-.99,1.93-1.33,3.13-3.69,3.57-7.03,.28-2.72-.92-4.6-3.4-5.29-4.35-1.58-8.9-2.72-13.53-3.39-4.52-.66-9.21-.59-13.76-.54-5.53,.07-11.18,.35-16.34,2.56-3.16,1.36-6.06,3.52-7.82,6.48-2.64,4.44-2.38,10.04-1.17,15.06,1.66,6.85,3.8,13.65,5.68,20.45,1.43,5.16,2.62,10.61,4.74,15.54,1.94,4.53,3.94,9.11,5.94,13.6,1.86,4.27,4.99,7.82,9.34,10.56,1.6,.96,4.99,2.15,9.48,2.59,9.78,.96,29.27-18.01,31.48-25.13,.6-1.92-.75-3.99-2.54-5.76-2.91-2.88-7.52-3.12-10.73-.59s-7.6,5.9-10.95,8.14c-3.78,2.53-7.27,4.48-8.87,.24-1.07-2.84-2.76-7.63-3.12-9.51-.32-1.64,.59-3.26,2.15-3.86,5.97-2.28,12.06-4.49,17.58-7.76,1.57-.93,3.18-2.06,3.82-3.77,.66-1.75,.16-3.71-.52-5.44-.56-1.43-1.28-2.85-2.45-3.84-2.4-2.03-6.02-1.73-8.99-.67-4.95,1.77-9.86,3.62-14.8,5.44-1.93,.71-4.07-.43-4.53-2.43-.68-2.94-.89-5.77-1.42-7.38-.68-2.11-.75-3.68-.18-4.54,.3-.46,.85-.83,1.63-1.1Z"/>
        <path class="cls-1" d="M582.72,197.1c-.95-2.85-4.17-4.5-7.31-4.04-4.16,.61-8.5,4.21-11.39,7.33-16.83,18.19-21.56,45.03-32.25,67.88-2.94-17.47-5.88-34.94-8.81-52.41-.59-3.49-1.21-7.08-3.05-10.01-1.84-2.92-5.23-5.01-8.46-4.08-2.6,.75-4.52,3.3-5.35,6.05-.84,2.75-.77,5.69-.6,8.55,1.39,24.43,7.02,50.27,13.55,73.58,1.66,5.94,3.83,12.36,9.16,15.57,3.04,1.84,7.1,2.11,10.02-.06,2.67-1.98,3.91-5.48,4.92-8.78,4.83-15.65,8.3-31.73,13.36-47.3,5.06-15.57,11.88-30.84,22.41-42.94,1.32-1.52,2.73-3.03,3.51-4.93,.68-1.66,.71-3.16,.29-4.42Z"/>
      </g>
      <g>
        <path class="cls-1" d="M355.89,78.32c.48-1.39,.95-2.82,1.42-4.26,.46-1.44,.95-2.86,1.46-4.24,1.31-3.85,2.83-7.56,4.57-11.08,1.74-3.53,3.83-7.02,6.28-10.46,.58-.91,1.26-1.71,2.02-2.43,1.41-1.28,3.06-2.02,4.96-2.21,1.88-.18,3.64,.15,5.08,1.03,1.55,.96,1.76,2.32,.63,3.88-2.73,3.34-5.04,6.79-6.97,10.37-1.92,3.56-3.57,7.23-4.93,10.93-1.37,3.72-2.5,7.5-3.4,11.35-.9,3.82-1.72,7.69-2.45,11.57-.21,.98-.38,1.97-.5,2.96-.12,.99-.33,1.94-.61,2.85-.28,.91-.69,1.72-1.2,2.44-.51,.72-1.29,1.31-2.26,1.8-.89,.45-1.84,.71-2.85,.72-1.01,0-1.98-.16-2.88-.5-.92-.34-1.74-.86-2.47-1.54-.73-.68-1.3-1.55-1.75-2.55-.99-2.21-2.1-4.46-3.14-6.68-1.04-2.23-2-4.53-2.82-6.91-1.23-3.54-2.31-7.09-3.29-10.65-.96-3.53-1.98-7.1-3.06-10.73-.24-.92-.23-1.79,.01-2.61,.24-.81,.7-1.56,1.36-2.19,.67-.64,1.51-1.12,2.49-1.47,.98-.34,2.09-.44,3.25-.38,1.09,.06,1.93,.36,2.43,.96,.5,.61,.83,1.33,1.06,2.04,.57,1.77,1.37,3.62,2.07,5.43s1.42,3.64,2.16,5.5c.47,1.16,.91,2.36,1.32,3.55,.42,1.21,.86,2.42,1.34,3.64,.11-.02,.22-.03,.33-.08s.23-.06,.34-.08Z"/>
        <path class="cls-1" d="M388.78,47.43c.48-1.67,1.21-3.13,2.29-4.11,2.6-2.35,7.03-1.96,10.09-.87,.63,.22,1.27,.52,1.65,1.07,.45,.66,.41,1.52,.35,2.31-.55,7.82-1.31,19.2-1.6,27.03-.42,7.11-.57,14.23-.89,21.35-.03,.74-.07,1.5-.37,2.18-.71,1.63-2.66,2.31-4.42,2.57-1.47,.22-3.07,.25-4.34-.53-1.36-.83-2.07-2.43-2.38-4-.7-3.44-1.06-7.04-1.27-10.54-.4-6.74-.49-17.06-.19-23.81,.14-3.21-.1-8.59,1.07-12.65Z"/>
        <path class="cls-1" d="M407.57,92.17c0-.22,.02-.44,.03-.65,.07-1.35,.21-2.79,1.04-3.85,.99-1.26,2.71-1.67,4.3-1.84,2.65-.28,5.52-.66,7.4-2.79,2.26-2.55,1.35-6.18-.28-8.79-.74-1.19-1.65-2.31-2.7-3.35-1.75-1.53-3.38-3.06-4.87-4.56-1.49-1.49-2.77-3.16-3.66-4.94-1.06-2.1-1.42-4.27-1.13-6.33,.29-2.05,1.06-3.97,2.3-5.78,1.24-1.8,2.9-3.48,5-5.04,2.1-1.55,4.41-2.94,6.91-4.16,2.5-1.23,5.13-2.23,7.83-2.99,2.68-.76,5.28-1.26,7.58-1.33,1.74-.05,2.98,.24,3.59,.72,.61,.48,.78,1.39,.47,2.63-.23,.92-.55,1.87-.89,2.83-.34,.94-.71,1.84-1.12,2.69-.95,2.15-2.82,3.38-5.64,3.69-1.59,.18-3.13,.59-4.6,1.22-1.48,.63-2.68,1.4-3.62,2.29-.94,.89-1.56,1.88-1.83,2.99-.27,1.11,0,2.26,.68,3.4,.42,.7,.88,1.36,1.42,1.94,.54,.6,1.07,1.16,1.61,1.69,1.4,1.41,2.81,2.78,4.24,4.12,1.42,1.32,2.74,2.77,3.93,4.3,1.36,1.74,2.29,3.61,2.78,5.59,.49,1.99,.38,4.16-.27,6.51-.78,3.85-2.61,7.04-5.38,9.51-2.79,2.49-6.29,4.28-10.52,5.3-3.41,.83-7.51,1.01-10.95,.25-.89-.2-1.79-.49-2.45-1.12-1.09-1.03-1.25-2.65-1.21-4.18Z"/>
        <path class="cls-1" d="M488.47,45.69c1.24-1.92,3.02-3.67,5.27-4,1.27-.19,2.58,.1,3.75,.65,1.17,.55,2.27,1.46,2.57,2.72,.23,.95-.04,1.94-.31,2.88-2.08,7.38-4.04,14.76-5.87,22.21-1.47,5.99-2.69,12.03-3.86,18.08-.13,.65-.26,1.33-.65,1.86-.52,.7-1.39,1.05-2.23,1.29-1.31,.37-2.67,.59-4.03,.63-1.76,.05-3.85-.39-4.54-2.02-.33-.77-.26-1.65-.18-2.48,.16-1.59,.35-3.17,.58-4.75,.12-.82,.3-1.65,.39-2.47,.01-.12-.07-1.88-.17-1.77-1.54,1.61-3.09,3.22-4.63,4.82-1.55,1.6-3.22,3.04-5,4.33-1.72,1.25-3.53,2.24-5.41,2.9-1.88,.66-3.72,.99-5.53,.99-1.8,0-3.52-.29-5.13-.89-1.61-.59-3.03-1.51-4.24-2.74-1.83-1.87-3.1-3.91-3.76-6.09-.66-2.19-1.06-4.52-1.14-6.9-.15-4.76,.65-9.66,2.29-14.48,1.16-3.44,2.38-6.86,3.66-10.26,1.16-3.06,2.12-7.41,4.8-9.52,1.07-.84,2.39-1.29,3.71-1.58,1.64-.36,3.34-.49,5.01-.35,1.29,.11,2.73,.49,3.37,1.62,.68,1.2,.19,2.69-.3,3.98-2.64,7.01-4.91,14.33-6.13,21.73-.38,2.29-.55,4.32-.51,6.1,.04,1.78,.34,3.19,.9,4.23,.55,1.04,1.49,1.36,2.74,1.09,1.38-.3,2.97-1.11,4.57-2.56,1.6-1.45,3.22-3.2,4.85-5.26,1.62-2.05,3.22-4.29,4.77-6.69,1.56-2.41,3.01-4.75,4.34-6.99,1.98-3.34,3.84-6.78,5.88-10.07,.05-.08,.1-.16,.15-.23Z"/>
        <path class="cls-1" d="M512.28,69.17c-1.52,2.65-2.45,5.63-2.83,8.82-.28,2.35-.53,4.72-.57,7.09-.03,1.91,.43,4.16-.78,5.81-.97,1.32-2.75,1.78-4.39,1.78-1.49,0-3.1-.37-4.02-1.53-.8-1-.92-2.37-.97-3.65-.24-5.95,.36-11.93,1.68-17.74,.93-4.08,2.53-8.01,4.89-11.61,1.52-2.32,3.28-4.42,5.29-6.28,2.01-1.86,4.48-3.31,7.42-4.33,1.75-.58,3.54-.98,5.33-1.23,1.79-.25,3.78-.19,5.92,.16,3,.5,5.55,1.41,7.59,2.63,2.04,1.22,3.61,2.65,4.71,4.26,1.1,1.62,1.71,3.37,1.82,5.24,.12,1.88-.25,3.8-1.11,5.78-1.34,3.73-2.7,7.54-4.07,11.47-1.37,3.93-2.75,8-4.11,12.18-.65,1.84-1.39,3.87-3.37,4.6-1.14,.42-2.38,.43-3.59,.33-1.46-.12-2.91-.39-4.32-.79-.44-.13-.89-.27-1.22-.59-.42-.4-.58-1.01-.56-1.59,.07-1.64,.8-3.45,1.22-5.02,.48-1.8,.97-3.6,1.49-5.39,.84-2.91,1.79-5.73,2.85-8.46-5.69-.83-8.56-1.25-14.29-1.95Zm3.86-7.86c2.27,.47,4.41,.91,6.4,1.3,1.99,.4,4.01,.83,6.05,1.28,.36-.97,.67-1.92,.92-2.86,.24-.93,.37-1.87,.41-2.78,.06-1.55-.16-2.65-.76-3.26-.59-.61-1.34-.93-2.25-.94-.91,0-1.93,.22-3.05,.7-1.12,.47-2.16,1.07-3.13,1.73-.94,.64-1.8,1.35-2.52,2.15-.73,.8-1.42,1.69-2.07,2.67Z"/>
        <path class="cls-1" d="M554.98,87.21c2.64,.16,5.28,.31,7.92,.47,1.46,.09,3.07,.68,2.72,2.45-.19,.97-.37,1.97-.7,2.83-.39,1.04-.97,1.8-1.7,2.26-.72,.45-1.82,.67-3.26,.64-1.39-.02-6.35-.17-7.75-.16-1.39,0-2.8-.01-4.19,0-2.68,0-4.7-.5-5.99-1.61-1.3-1.12-1.77-2.81-1.37-4.98,.63-3.46,1.48-6.85,2.5-10.13,1.02-3.28,2.12-6.46,3.3-9.56,2.31-6.1,4.95-12.07,7.48-18.09,.29-.69,.59-1.39,1.13-1.91,.68-.64,1.65-.88,2.57-1.01,2.72-.38,5.53-.04,8.08,.98,.42,.17,.86,.38,1.1,.77,.35,.58,.13,1.32-.09,1.96-1.63,4.57-3.24,9.15-4.93,13.7-1.18,3.18-2.31,6.48-3.44,9.78-1.29,3.79-2.75,7.67-3.39,11.63Z"/>
      </g>
      <g>
        <path class="cls-1" d="M398.51,137.36c.67,4.99,1.38,10.03,2.1,14.95,.55,4.29,1.19,8.65,1.9,12.95,.72,4.37,1.48,8.73,2.22,13.09,.43,2.49,.85,4.98,1.28,7.47s.39,5.45,2,7.41c.15,.18,.3,.34,.47,.5,.91,.83,2.14,1.23,3.36,1.41,2.92,.44,6.07-.31,8.29-2.26,3.43-3.02,2.83-6.97,2.24-10.99-.44-3.03-1.07-6.09-1.34-9.14-.1-1.13-.21-2.3-.32-3.52-.11-1.22-.22-2.4-.33-3.56,0-.08-.01-.16-.02-.24,.91,.51,1.83,1.09,2.76,1.74,1.7,1.2,3.45,2.4,5.21,3.56,2.07,1.37,4.52,2.29,6.78,3.28,2.88,1.26,5.75,2.76,8.93,3.06,2.82,.26,5.92-.62,7.59-2.91,1.26-1.73,1.53-3.98,1.5-6.12-.02-1.38-.23-2.9-1.27-3.81-.6-.53-1.4-.76-2.16-.99-2.74-.8-5.51-1.54-8.23-2.42-1.29-.42-7.67-2.84-9.06-3.48-.89-.41-1.88-.93-2.94-1.53,.48-.29,.96-.58,1.43-.85,1.08-.64,2.18-1.31,3.27-2.01,7.71-4.95,12.38-11.66,13.87-19.93,.87-5.14,.04-9.77-2.44-13.76-2.47-3.97-6.4-6.94-11.66-8.83-2.66-.98-5.29-1.64-7.8-1.96-2.53-.32-5.07-.35-7.55-.09-.88,.09-1.78,.22-2.67,.37-1.6,.28-3.22,.65-4.83,1.12-2.53,.73-4.93,1.68-7.4,2.58-2.16,.79-4.56,1.53-5.98,3.47-1.44,1.96-1.47,4.61-1.1,7.02,.75,4.8,1.24,9.59,1.89,14.42Zm18.38-16.99c.06-.01,.12-.02,.19-.03,2.64-.45,5.21-.46,7.65-.03,2.33,.42,4.23,1.31,5.8,2.74,1.37,1.24,1.93,3.17,1.71,5.96-.12,2.74-.72,5.17-1.79,7.23-1.1,2.13-2.51,4.02-4.2,5.64-1.73,1.66-3.75,3.14-6,4.41l-4.97,2.8c-.83-4.43-1.36-8.85-1.6-13.19-.17-3.19-.51-6.39-1.02-9.56-.44-2.8,1.43-5.47,4.22-5.97Z"/>
        <path class="cls-1" d="M505.66,187.73c.66-.04,1.31-.11,1.96-.2,1.82-.27,3.74-.86,4.72-2.28,1-1.45,.75-3.34,.46-5.06-1-5.96-.18-1.61-1.18-7.57-1.71-10.22-3.21-18.16-13.47-24.11,5.71-2.53,11.1-5.96,14.6-10.81s4.83-11.28,2.33-16.73c-1.82-3.97-5.51-7.09-9.71-9-5.1-2.32-10.96-3.06-16.55-2.87-4.29,.14-8.53,.91-12.61,2.28-1.49-.99-4.64-6.75-6.36-6.8-.58-.02-1.18-.02-1.76,0-1.17,.04-2.37,.16-3.56,.35-2.06,.32-3.37,.77-4.13,1.42-.84,.72-.67,2.53-.64,4.19,.03,1.87,.56,3.61,.63,5.44,.1,2.56,.08,5.13,.15,7.69,.13,5.13,.34,10.25,.61,15.38,.96,17.83,3.73,45.03,6.21,62.77,.13,.91,.27,1.86,.82,2.64,.91,1.3,2.71,1.8,4.36,2.01,2.13,.26,4.3,.2,6.39-.19,1.11-.2,2.23-.51,3.11-1.16,1.51-1.12,2.02-3.04,2.08-4.84,.43-11.46-3.5-31.86-4.72-43.23-.03-.32-.06-.67,.09-.96,.66-1.27,3.38-.52,4.47-.32,1.9,.34,3.74,1.05,5.21,2.24,2.53,2.06,3.65,5.22,4.21,8.26,1.74,9.43,.92,6.47,2.81,15.88,.31,1.57,.71,3.27,2.05,4.31,.93,.73,2.18,.99,3.38,1.14,1.34,.16,2.7,.21,4.05,.13Zm-6.06-58.99c-.67,1.58-1.63,3.01-2.85,4.25-1.27,1.29-2.8,2.53-4.55,3.68-4.23,2.8-9.32,4.28-14.26,5.22-.17-3.31-.29-6.61-.36-9.93-.05-2.73-.2-5.5-.43-8.2-.07-1.16,.2-2.61,3.02-3.51,2.23-.78,4.53-1.22,6.83-1.3,2.04-.07,4.14,.14,6.25,.63,2.92,.64,4.89,1.79,6.02,3.52,1.11,1.69,1.21,3.53,.32,5.63Z"/>
        <path class="cls-1" d="M524.59,173.67c.55,4.82,2.89,14.71,3.99,19.44,1.3,5.62,3.02,8.68,9.5,9.84,.86,.15,1.75,.14,2.61-.03,2.26-.43,4.32-1.89,5.01-4.06,.44-1.37,.32-2.84,.14-4.27-1.13-8.94-4.08-12.05-5.49-20.92-1.82-11.52-2.42-18.16,.11-18.6,0,0,18.06-2.21,18.07-2.21,.39-.04,1.18,18.29,1.31,19.87,.12,1.49,.26,3.03,.97,4.35,1.54,2.88,5.26,3.86,8.51,3.62,1.48-.11,2.99-.43,4.19-1.3,1.22-.9,1.99-2.29,2.51-3.72,1.45-3.99,1.21-8.39,.57-12.58-1.54-10.13-2.95-20.3-3.93-30.51-.37-3.81-1.31-7.36-2.81-10.55-1.51-3.21-3.51-5.94-5.94-8.1-2.45-2.17-5.27-3.69-8.4-4.5-2.42-.63-5.01-.71-7.72-.25-.81,.14-1.64,.33-2.49,.57-2.58,.77-4.83,1.93-6.68,3.45-1.78,1.45-3.49,3.13-5.11,5.02-2.66,3.25-4.7,6.82-6.05,10.62-3.54,9.89-4.72,20.34-3.79,30.79,.95,10.68-.3,3.37,.93,14.02Zm14.4-35.26c.61-2.38,1.49-4.72,2.64-7.02,1.12-2.39,2.45-4.66,3.95-6.74,1.35-1.88,2.71-3.16,4.02-3.8,.27-.13,.54-.22,.8-.27,.67-.12,1.33,.05,2.07,.51,.53,.33,1.93,1.62,3.57,6.46,.83,2.28,1.46,4.69,1.88,7.13l.92,5.36c-3.59,.42-7.18,.89-10.71,1.39-3.25,.46-6.7,.92-10.28,1.36l1.13-4.39Z"/>
        <path class="cls-1" d="M297.87,171.8c2.85,6.28,5.91,12.41,9.02,18.6,1.99,3.96,4.17,8.88,8.52,10.69,2.99,1.24,6.42,1.07,9.54,.21,2.14-.6,4.42-1.75,5.07-3.88,.37-1.23,.12-2.55-.24-3.79-1-3.45-2.81-6.59-4.29-9.84-1.53-3.36-3.06-6.73-4.63-10.08-1.07-2.3-2.14-4.59-3.21-6.89,9.97-6.52,18.94-21.27,21.75-28.31,2.39-5.99,2.73-13.36,.99-21.31-1.26-5.74-4.19-13.53-11.01-18.1-6.02-4.03-14.29-4.57-21.07-1.39-6.56,3.08-10.77,9.46-13.01,16.16-.09,.27-.19,.55-.4,.74-.55,.48-2.28-.33-2.88-.49-1.16-.29-2.36-.56-3.56-.31-1.96,.42-3.43,1.56-4.38,3.4-1.55,3-1.37,6.78-1.03,10.03,.49,4.64,1.64,9.2,2.96,13.67,2.6,8.82,6.02,17.4,9.63,25.84,.73,1.7,1.47,3.39,2.23,5.06Zm9.45-56.97c.89-1.04,3.56-2.24,6.55-2.24,.55,0,1.11,.04,1.68,.13,1.98,.32,4.63,1.38,6,4.68,7.09,17.05-2.25,27.28-8.44,34.05-.55,.6-1.07,1.17-1.55,1.72-.61-1.46-1.21-2.91-1.78-4.34-1.79-4.47-3.28-8.73-4.44-12.67-1.13-3.84-1.67-6.99-1.6-9.36,.08-5.28,1.28-9.31,3.58-11.98Z"/>
        <path class="cls-1" d="M393.39,184.12c-.04-.47-.07-.94-.09-1.42-.09-2.18-.21-4.37-.36-6.56-.32-4.58-.67-9.17-1.04-13.75-.58-7.15-1.26-14.35-2.01-21.32-.28-4.04-1.09-7.8-2.41-11.16-1.33-3.38-3.12-6.24-5.32-8.49-4.76-4.86-11.71-6.41-17.99-3.62-4.11,1.82-7.42,5.19-9.98,8.8-2.49,3.51-4.42,7.35-5.72,11.41-1.28,3.97-2.29,8.12-3.02,12.35-1.13,6.57-1.47,13.16-1.03,19.6,.09,1.25,.19,2.51,.31,3.77,.04,2.06,.31,4.35,.76,6.56,.4,2.92,.88,5.84,1.45,8.73l.02,.09c.59,2.71,1.18,5.42,1.77,8.12,.1,.48,.21,.97,.49,1.37,.5,.73,1.43,1.02,2.29,1.19,3.59,.71,7.41,.17,10.67-1.49,.76-.39,1.53-.89,1.84-1.67,.29-.73,.13-1.55-.03-2.32-.88-4.12-1.7-8.25-2.84-12.31-.23-1.24-.46-2.48-.67-3.74-.72-4.3-.88-8.54-.49-12.63l14.12-3.12c.15,4.23,.39,8.53,.72,12.83,.42,5.5,.67,11.07,1.32,16.54,.22,1.83,.99,3.79,2.65,4.6,.8,.39,1.71,.46,2.6,.48,1.61,.03,3.22-.1,4.8-.39,1.43-.26,2.87-.67,4.06-1.51,1.84-1.31,2.86-3.53,3.19-5.76,.26-1.75,.07-3.44-.07-5.16Zm-26.26-33.45c-2.72,.51-5.6,1.01-8.58,1.5l1-4.26c.54-2.31,1.31-4.58,2.3-6.82,.97-2.33,2.11-4.54,3.39-6.58,1.15-1.84,2.3-3.1,3.4-3.74,.23-.13,.46-.22,.67-.27,.56-.12,1.1,.02,1.71,.46,.43,.31,1.58,1.53,2.89,6.18,.66,2.19,1.15,4.49,1.47,6.85l.69,5.16c-3,.47-6,.99-8.94,1.53Z"/>
      </g>
    </g>
  </g>
</svg>